<?xml version="1.0" encoding="UTF-8" standalone="no"?>
<!-- Created with Inkscape (http://www.inkscape.org/) -->

<svg
   version="1.1"
   id="svg2"
   width="1024"
   height="1024"
   viewBox="0 0 1024 1024"
   sodipodi:docname="noss.svg"
   inkscape:version="1.3.2 (091e20ef0f, 2023-11-25, custom)"
   xmlns:inkscape="http://www.inkscape.org/namespaces/inkscape"
   xmlns:sodipodi="http://sodipodi.sourceforge.net/DTD/sodipodi-0.dtd"
   xmlns="http://www.w3.org/2000/svg"
   xmlns:svg="http://www.w3.org/2000/svg">
  <defs
     id="defs6">
    <linearGradient
       x1="0"
       y1="0"
       x2="1"
       y2="0"
       gradientUnits="userSpaceOnUse"
       gradientTransform="matrix(0,-703.92413,-703.92413,0,306,747.50745)"
       spreadMethod="pad"
       id="linearGradient28">
      <stop
         style="stop-opacity:1;stop-color:#79caf5"
         offset="0"
         id="stop22" />
      <stop
         style="stop-opacity:1;stop-color:#79caf5"
         offset="0.00540541"
         id="stop24" />
      <stop
         style="stop-opacity:1;stop-color:#1930a4"
         offset="1"
         id="stop26" />
    </linearGradient>
    <clipPath
       clipPathUnits="userSpaceOnUse"
       id="clipPath38">
      <path
         d="M 0,792 H 612 V 0 H 0 Z"
         id="path36" />
    </clipPath>
    <clipPath
       clipPathUnits="userSpaceOnUse"
       id="clipPath66">
      <path
         d="M 115.499,314.621 H 306 V 91.886 H 115.499 Z"
         id="path64" />
    </clipPath>
    <linearGradient
       x1="0"
       y1="0"
       x2="1"
       y2="0"
       gradientUnits="userSpaceOnUse"
       gradientTransform="matrix(0,-149.81407,-149.81407,0,306,412.54379)"
       spreadMethod="pad"
       id="linearGradient110">
      <stop
         style="stop-opacity:1;stop-color:#9e9fa4"
         offset="0"
         id="stop104" />
      <stop
         style="stop-opacity:1;stop-color:#9e9fa4"
         offset="0.00540541"
         id="stop106" />
      <stop
         style="stop-opacity:1;stop-color:#6d7278"
         offset="1"
         id="stop108" />
    </linearGradient>
    <clipPath
       clipPathUnits="userSpaceOnUse"
       id="clipPath120">
      <path
         d="M 0,792 H 612 V 0 H 0 Z"
         id="path118" />
    </clipPath>
  </defs>
  <sodipodi:namedview
     id="namedview4"
     pagecolor="#ffffff"
     bordercolor="#000000"
     borderopacity="0.25"
     inkscape:showpageshadow="2"
     inkscape:pageopacity="0.0"
     inkscape:pagecheckerboard="0"
     inkscape:deskcolor="#d1d1d1"
     showguides="false"
     inkscape:zoom="0.56004902"
     inkscape:cx="407.10722"
     inkscape:cy="527.63239"
     inkscape:window-width="1900"
     inkscape:window-height="1033"
     inkscape:window-x="1930"
     inkscape:window-y="1117"
     inkscape:window-maximized="1"
     inkscape:current-layer="g8" />
  <g
     id="g8"
     inkscape:groupmode="layer"
     inkscape:label="skull (5)"
     transform="matrix(1.3333333,0,0,-1.3333333,0,1056)">
    <g
       id="g10"
       transform="translate(82.444851,9.5059387)"
       inkscape:transform-center-x="0.37402557"
       inkscape:transform-center-y="2.8202313">
      <g
         id="g12">
        <g
           id="g18">
          <g
             id="g20">
            <path
               d="M 187.62,652.529 C 150.19,588.839 115.64,517.182 95.202,460.846 v 0 C 90.381,447.559 85.73,435.347 81.626,424.573 v 0 C 67.513,387.518 57.315,360.745 57.315,335.08 v 0 c 0,-34.549 10.02,-85.035 88.154,-169.476 v 0 C 223.05,81.761 295.877,48.175 298.939,46.784 v 0 l 7.061,-3.201 7.06,3.201 c 3.063,1.391 75.89,34.977 153.47,118.82 v 0 c 78.135,84.441 88.155,134.927 88.155,169.476 v 0 c 0,25.665 -10.198,52.438 -24.312,89.493 v 0 c -4.103,10.774 -8.754,22.986 -13.574,36.273 v 0 C 496.36,517.182 461.811,588.839 424.38,652.529 v 0 C 390.874,709.538 357.92,747.508 306,747.508 v 0 c -51.919,0 -84.874,-37.97 -118.38,-94.979"
               style="fill:url(#linearGradient28);stroke:none"
               id="path30" />
          </g>
        </g>
      </g>
    </g>
    <g
       id="g32"
       transform="translate(82.444851,9.5059387)"
       inkscape:transform-center-x="0.37402557"
       inkscape:transform-center-y="1.7034313">
      <g
         id="g34"
         clip-path="url(#clipPath38)">
        <g
           id="g40"
           transform="translate(500.7275,455.0151)">
          <path
             d="m 0,0 c -20.835,57.43 -55.293,127.949 -91.087,188.851 -35.793,60.903 -63.84,86.546 -103.641,86.546 -39.8,0 -67.847,-25.643 -103.641,-86.546 C -334.162,127.949 -368.62,57.43 -389.455,0 c -20.835,-57.43 -36.862,-90.552 -36.862,-119.935 0,-29.383 7.479,-75.594 83.607,-157.865 76.128,-82.273 147.982,-114.861 147.982,-114.861 0,0 71.855,32.588 147.983,114.861 76.128,82.271 83.607,128.482 83.607,157.865 C 36.862,-90.552 20.835,-57.43 0,0"
             style="fill:#000000;fill-opacity:1;fill-rule:nonzero;stroke:none"
             id="path42" />
        </g>
        <g
           id="g44"
           transform="translate(260.2344,581.3613)">
          <path
             d="m 0,0 -17.63,7.479 c 0,0 25.103,61.087 56.13,100.781 C 20.567,100.637 -9.624,69.5 -29.561,34.725 -52.533,-5.342 -68.56,-44.608 -99.813,-123.942 c -31.252,-79.333 -42.471,-116.462 -42.471,-116.462 0,0 33.657,75.148 62.149,129.996 C -51.643,-55.56 -23.863,-18.698 0,0"
             style="fill:#192a44;fill-opacity:1;fill-rule:nonzero;stroke:none"
             id="path46" />
        </g>
        <g
           id="g48"
           transform="translate(381.3271,616.0864)">
          <path
             d="m 0,0 c -19.937,34.774 -50.129,65.912 -68.063,73.535 31.028,-39.694 56.131,-100.781 56.131,-100.781 l -17.63,-7.479 c 23.863,-18.698 51.643,-55.56 80.135,-110.408 28.493,-54.848 62.15,-129.996 62.15,-129.996 0,0 -11.219,37.129 -42.472,116.462 C 38.999,-79.333 22.972,-40.067 0,0"
             style="fill:#598fd7;fill-opacity:1;fill-rule:nonzero;stroke:none"
             id="path50" />
        </g>
        <g
           id="g52"
           transform="translate(351.7656,581.3613)">
          <path
             d="m 0,0 17.63,7.479 c 0,0 -25.104,61.087 -56.131,100.781 -2.729,1.16 -5.183,1.792 -7.265,1.792 -2.081,0 -4.535,-0.632 -7.265,-1.792 C -84.058,68.566 -109.161,7.479 -109.161,7.479 L -91.531,0 c -23.863,-18.698 -51.643,-55.56 -80.136,-110.408 -28.492,-54.848 -62.148,-129.996 -62.148,-129.996 0,0 15.759,35.526 75.059,101.771 59.3,66.244 112.99,102.305 112.99,102.305 0,0 53.691,-36.061 112.991,-102.305 59.299,-66.245 75.059,-101.771 75.059,-101.771 0,0 -33.656,75.148 -62.149,129.996 C 51.643,-55.56 23.862,-18.698 0,0"
             style="fill:#2f4f82;fill-opacity:1;fill-rule:nonzero;stroke:none"
             id="path54" />
        </g>
        <g
           id="g56"
           transform="translate(491.3789,308.7246)">
          <path
             d="m 0,0 c -6.945,5.877 -12.109,9.082 -19.232,1.247 -7.123,-7.836 -30.63,-35.972 -47.013,-39.533 -16.383,-3.563 -24.753,7.123 -24.753,7.123 0,0 0.159,-1.84 0.391,-4.859 4.7,-3.177 12.878,-7.183 24.094,-6.939 18.432,0.4 41.537,18.297 46.078,25.51 4.541,7.212 8.949,2.671 4.541,-8.682 -4.407,-11.352 -20.791,-35.126 -68.515,-86.234 -34.937,-37.413 -80.53,-82.812 -102.473,-104.472 0.96,-0.835 1.503,-1.306 1.503,-1.306 0,0 69.094,59.834 116.463,107.916 C -21.548,-62.149 0,-29.561 2.849,-21.013 5.698,-12.466 6.944,-5.876 0,0"
             style="fill:#30519e;fill-opacity:1;fill-rule:nonzero;stroke:none"
             id="path58" />
        </g>
        <g
           id="g60">
          <g
             id="g62" />
          <g
             id="g74">
            <g
               clip-path="url(#clipPath66)"
               opacity="0.5"
               id="g72">
              <g
                 transform="translate(205.0303,196.3574)"
                 id="g70">
                <path
                   d="m 0,0 c -47.725,51.108 -64.108,74.882 -68.516,86.234 -4.407,11.353 0,15.894 4.541,8.682 4.541,-7.213 27.647,-25.109 46.078,-25.51 11.217,-0.244 19.395,3.762 24.095,6.939 0.232,3.019 0.391,4.859 0.391,4.859 0,0 -8.37,-10.685 -24.753,-7.123 -16.383,3.562 -39.889,31.697 -47.013,39.533 -7.123,7.835 -12.287,4.63 -19.232,-1.247 -6.945,-5.876 -5.698,-12.466 -2.849,-21.013 2.849,-8.547 24.397,-41.136 71.765,-89.216 43.305,-43.956 104.732,-97.705 114.96,-106.61 0.485,0.479 0.995,0.983 1.502,1.485 C 78.494,-80.783 34.147,-36.568 0,0"
                   style="fill:#0e1525;fill-opacity:1;fill-rule:nonzero;stroke:none"
                   id="path68" />
              </g>
            </g>
          </g>
        </g>
        <g
           id="g76"
           transform="translate(470.9443,291.2734)">
          <path
             d="m 0,0 c -4.541,-7.213 -27.646,-25.109 -46.078,-25.51 -11.217,-0.244 -19.395,3.762 -24.095,6.939 0.754,-9.813 2.291,-32.234 1.746,-45.715 -0.712,-17.63 -19.41,-40.602 -36.861,-50.397 -17.452,-9.794 -47.547,-10.15 -59.656,-10.15 -12.11,0 -42.205,0.356 -59.656,10.15 -17.452,9.795 -36.15,32.767 -36.862,50.397 -0.545,13.481 0.992,35.902 1.746,45.715 -4.701,-3.177 -12.878,-7.183 -24.095,-6.939 -18.431,0.401 -41.537,18.297 -46.078,25.51 -4.541,7.212 -8.948,2.671 -4.541,-8.682 4.408,-11.352 20.791,-35.126 68.516,-86.234 34.147,-36.568 78.494,-80.783 100.969,-102.987 22.464,22.191 66.805,66.4 100.97,102.987 C -16.25,-43.808 0.134,-20.034 4.541,-8.682 8.948,2.671 4.541,7.212 0,0"
             style="fill:#12182e;fill-opacity:1;fill-rule:nonzero;stroke:none"
             id="path78" />
        </g>
        <g
           id="g80"
           transform="translate(462.3516,345.5869)">
          <path
             d="M 0,0 C -6.588,6.767 -17.095,22.26 -19.944,28.76 -25.999,16.026 -39.177,2.314 -49.505,-3.206 c 16.561,17.63 22.972,46.316 13,53.164 0.89,-11.493 -2.672,-37.671 -27.068,-49.603 -24.397,-11.93 -40.78,-7.657 -45.588,-3.205 -4.808,4.453 -17.985,16.383 -17.985,16.383 l -17.808,1.604 92.065,49.861 -98.391,87.384 70.167,-88.185 -67.403,-48.883 c 0,0 8.726,-3.027 18.075,-11.841 9.349,-8.816 23.15,-20.746 51.999,-20.746 28.848,0 54.67,23.06 54.67,23.06 0,0 7.923,-6.232 11.04,-9.794 3.117,-3.561 5.609,-7.836 0,-12.555 -5.61,-4.718 -32.499,-20.478 -32.499,-20.478 0,0 -2.939,4.096 -17.006,9.437 -14.069,5.343 -31.076,0.624 -37.931,-12.643 -6.856,-13.267 -5.966,-35.17 -5.966,-35.17 l -6.855,-8.103 -8.637,7.658 -11.932,-11.842 -10.239,6.321 -7.123,-7.212 -5.432,3.95 v -8.491 l 6.412,-4.273 7.835,8.012 10.863,-9.971 9.437,12.999 10.685,-8.547 8.725,13.712 19.233,-13.178 c 0,0 -4.985,19.41 -2.849,47.012 -5.343,-2.315 -14.602,-19.588 -14.602,-19.588 0,0 2.493,15.314 9.082,24.04 6.589,8.726 18.164,9.26 29.739,2.137 11.574,-7.123 20.122,-10.328 25.643,-6.767 5.52,3.562 27.246,21.547 34.546,26.89 C 5.699,-15.314 6.589,-6.768 0,0"
             style="fill:#d9dce1;fill-opacity:1;fill-rule:nonzero;stroke:none"
             id="path82" />
        </g>
        <g
           id="g84"
           transform="translate(353.0127,229.0352)">
          <path
             d="m 0,0 -11.887,5.698 -9.661,-10.684 -9.082,9.705 -7.123,-12.733 -9.26,5.588 v -12.622 c 0,0 20.39,1.247 41.492,8.993 10.772,3.954 18.024,9.247 22.559,13.489 l -6.71,6.901 z"
             style="fill:#d9dce1;fill-opacity:1;fill-rule:nonzero;stroke:none"
             id="path86" />
        </g>
        <g
           id="g88"
           transform="translate(378.2227,222.543)">
          <path
             d="m 0,0 c -4.974,-2.868 -17.245,-9.528 -31.888,-14.432 -16.885,-5.655 -36.048,-6.252 -40.335,-6.314 v -15.5 l 10.952,8.547 12.376,-5.876 11.798,12.465 12.421,-7.212 7.39,11.041 c 0,0 9.438,0.979 13.445,1.068 4.007,0.089 5.876,4.096 5.253,9.973 C 1.17,-3.95 0.602,-1.794 0,0"
             style="fill:#d9dce1;fill-opacity:1;fill-rule:nonzero;stroke:none"
             id="path90" />
        </g>
      </g>
    </g>
    <g
       id="g92"
       transform="translate(82.444851,9.5059387)"
       inkscape:transform-center-x="0.37430415"
       inkscape:transform-center-y="23.903564">
      <g
         id="g94">
        <g
           id="g100">
          <g
             id="g102">
            <path
               d="m 300.928,497.969 -70.166,-88.185 67.403,-48.882 c 0,0 -8.726,-3.028 -18.075,-11.842 v 0 c -9.349,-8.816 -23.151,-20.746 -51.999,-20.746 v 0 c -28.848,0 -54.67,23.06 -54.67,23.06 v 0 c 0,0 -7.924,-6.232 -11.04,-9.794 v 0 c -3.117,-3.562 -5.61,-7.836 0,-12.554 v 0 c 5.609,-4.719 32.499,-20.479 32.499,-20.479 v 0 c 0,0 2.938,4.096 17.006,9.437 v 0 c 14.068,5.343 31.074,0.624 37.931,-12.643 v 0 c 6.856,-13.267 5.965,-35.17 5.965,-35.17 v 0 l 6.856,-8.103 8.637,7.657 11.931,-11.841 10.239,6.321 7.123,-7.212 5.432,3.95 5.431,-3.95 7.124,7.212 10.239,-6.321 11.932,11.841 8.636,-7.657 6.856,8.103 c 0,0 -0.891,21.903 5.965,35.17 v 0 c 6.856,13.267 23.863,17.986 37.931,12.643 v 0 c 14.068,-5.341 17.006,-9.437 17.006,-9.437 v 0 c 0,0 26.89,15.76 32.499,20.479 v 0 c 5.609,4.718 3.117,8.992 0,12.554 v 0 c -3.116,3.562 -11.04,9.794 -11.04,9.794 v 0 c 0,0 -25.821,-23.06 -54.67,-23.06 v 0 c -28.848,0 -42.649,11.93 -51.999,20.746 v 0 c -9.348,8.814 -18.074,11.842 -18.074,11.842 v 0 l 67.402,48.882 -70.166,88.185 -5.072,4.504 z M 275.905,277.383 c -1.781,6.233 -0.178,10.863 3.206,15.67 v 0 c 3.383,4.809 7.835,8.549 11.396,21.548 v 0 c 3.562,13 15.493,18.165 15.493,18.165 v 0 c 0,0 11.931,-5.165 15.493,-18.165 v 0 c 3.562,-12.999 8.013,-16.739 11.396,-21.548 v 0 c 3.384,-4.807 4.987,-9.437 3.206,-15.67 v 0 c -1.781,-6.233 -4.451,-8.548 -30.095,-8.548 v 0 c -25.643,0 -28.315,2.315 -30.095,8.548"
               style="fill:url(#linearGradient110);stroke:none"
               id="path112" />
          </g>
        </g>
      </g>
    </g>
    <g
       id="g114"
       transform="translate(82.444851,9.5059387)"
       inkscape:transform-center-x="59.426407"
       inkscape:transform-center-y="74.036963">
      <g
         id="g116"
         clip-path="url(#clipPath120)">
        <g
           id="g122"
           transform="translate(149.6479,345.5869)">
          <path
             d="M 0,0 C 6.589,6.767 17.095,22.26 19.945,28.76 26,16.026 39.177,2.314 49.505,-3.206 32.944,14.424 26.534,43.11 36.506,49.958 35.616,38.465 39.177,12.287 63.574,0.355 c 24.396,-11.93 40.78,-7.657 45.588,-3.205 4.808,4.453 17.985,16.383 17.985,16.383 l 17.808,1.604 -92.066,49.861 98.391,87.384 -70.166,-88.185 67.403,-48.883 c 0,0 -8.726,-3.027 -18.075,-11.841 -9.349,-8.816 -23.15,-20.746 -51.999,-20.746 -28.848,0 -54.67,23.06 -54.67,23.06 0,0 -7.924,-6.232 -11.041,-9.794 -3.116,-3.561 -5.609,-7.836 0,-12.555 5.61,-4.718 32.5,-20.478 32.5,-20.478 0,0 2.938,4.096 17.006,9.437 14.068,5.343 31.075,0.624 37.93,-12.643 6.856,-13.267 5.966,-35.17 5.966,-35.17 l 6.856,-8.103 8.637,7.658 11.931,-11.842 10.239,6.321 7.123,-7.212 5.432,3.95 v -8.491 l -6.411,-4.273 -7.835,8.012 -10.863,-9.971 -9.438,12.999 -10.685,-8.547 -8.725,13.712 -19.233,-13.178 c 0,0 4.986,19.41 2.849,47.012 5.343,-2.315 14.603,-19.588 14.603,-19.588 0,0 -2.493,15.314 -9.082,24.04 -6.589,8.726 -18.164,9.26 -29.739,2.137 C 50.218,-47.903 41.67,-51.108 36.15,-47.547 30.629,-43.985 8.904,-26 1.603,-20.657 -5.699,-15.314 -6.589,-6.768 0,0"
             style="fill:#515459;fill-opacity:1;fill-rule:nonzero;stroke:none"
             id="path124" />
        </g>
        <g
           id="g126"
           transform="translate(258.9878,229.0352)">
          <path
             d="m 0,0 11.886,5.698 9.661,-10.684 9.082,9.705 7.123,-12.733 9.26,5.588 v -12.622 c 0,0 -20.39,1.247 -41.492,8.993 -10.772,3.954 -18.023,9.247 -22.559,13.489 l 6.71,6.901 z"
             style="fill:#515459;fill-opacity:1;fill-rule:nonzero;stroke:none"
             id="path128" />
        </g>
        <g
           id="g130"
           transform="translate(365.7451,253.5205)">
          <path
             d="m 0,0 -12.109,-16.828 -10.685,9.527 -11.041,-14.157 -9.26,11.486 -7.034,-12.109 -9.616,10.685 -9.616,-10.685 -7.035,12.109 -9.259,-11.486 -11.041,14.157 -10.685,-9.527 L -119.49,0 -129.997,-9.883 c 0,0 1.852,-3.101 6.201,-7.169 l 6.71,6.902 10.329,-14.335 11.886,5.698 9.661,-10.685 9.082,9.705 7.123,-12.732 9.26,5.588 9.26,-5.588 7.123,12.732 9.082,-9.705 9.661,10.685 11.887,-5.698 10.328,14.335 6.71,-6.902 c 4.348,4.068 6.201,7.169 6.201,7.169 z"
             style="fill:#676b74;fill-opacity:1;fill-rule:nonzero;stroke:none"
             id="path132" />
        </g>
        <g
           id="g134"
           transform="translate(376.252,227.2539)">
          <path
             d="m 0,0 c 0,0 -10.863,-9.349 -34.726,-15.492 -23.862,-6.144 -35.526,-5.432 -35.526,-5.432 0,0 -11.664,-0.712 -35.526,5.432 C -129.641,-9.349 -140.503,0 -140.503,0 c 0,0 -1.028,-1.902 -1.971,-4.711 4.974,-2.868 17.245,-9.528 31.888,-14.432 16.885,-5.655 36.046,-6.252 40.334,-6.314 4.287,0.062 23.449,0.659 40.335,6.314 14.643,4.904 26.914,11.564 31.888,14.432 C 1.027,-1.902 0,0 0,0"
             style="fill:#676b74;fill-opacity:1;fill-rule:nonzero;stroke:none"
             id="path136" />
        </g>
        <g
           id="g138"
           transform="translate(233.7778,222.543)">
          <path
             d="m 0,0 c 4.974,-2.868 17.245,-9.528 31.888,-14.432 16.885,-5.655 36.047,-6.252 40.334,-6.314 v -15.5 l -10.951,8.547 -12.377,-5.876 -11.798,12.465 -12.421,-7.212 -7.39,11.041 c 0,0 -9.438,0.979 -13.445,1.068 -4.007,0.089 -5.876,4.096 -5.253,9.973 C -1.17,-3.95 -0.602,-1.794 0,0"
             style="fill:#515459;fill-opacity:1;fill-rule:nonzero;stroke:none"
             id="path140" />
        </g>
      </g>
    </g>
  </g>
</svg>
